<?xml version="1.0" encoding="utf-8"?>
<!-- Generator: Adobe Illustrator 25.3.1, SVG Export Plug-In . SVG Version: 6.00 Build 0)  -->
<svg version="1.1" id="Layer_1" xmlns="http://www.w3.org/2000/svg" xmlns:xlink="http://www.w3.org/1999/xlink" x="0px" y="0px"
	 viewBox="0 0 362.7 496" style="enable-background:new 0 0 362.7 496;" xml:space="preserve">
<path d="M16,480V16h210.7l0.4,103.3c0,2.3,1,4.5,2.8,6c1.5,1.3,3.3,1.9,5.2,1.9c0.4,0,0.8,0,1.1-0.1l110.5-15.8V480H16z M335.8,96.8
	L243,110l-0.3-85.7L335.8,96.8z M239.6,1.7c-0.3-0.3-0.8-0.4-1.2-0.6c-0.3-0.2-0.6-0.4-0.9-0.5c-0.9-0.4-1.9-0.6-2.9-0.6l0,0H8
	C3.6,0,0,3.6,0,8v480c0,4.4,3.6,8,8,8h346.7c4.4,0,8-3.6,8-8V101.3c0-2.5-1.1-4.8-3.1-6.3L239.6,1.7z"/>
<path d="M116.2,241.3c10.8,0,19.7-8.8,19.7-19.7c0-10.8-8.8-19.7-19.7-19.7c-10.8,0-19.7,8.8-19.7,19.7S105.3,241.3,116.2,241.3z"/>
<path d="M249.5,241.3c10.8,0,19.7-8.8,19.7-19.7c0-10.8-8.8-19.7-19.7-19.7c-10.9,0-19.7,8.8-19.7,19.7S238.6,241.3,249.5,241.3z"/>
<path d="M182.8,292.8c-56.8,0-103,46.2-103,103c0,4.4,3.6,8,8,8s8-3.6,8-8c0-48,39-87,87-87s87,39,87,87c0,4.4,3.6,8,8,8
	c4.4,0,8-3.6,8-8C285.8,339,239.6,292.8,182.8,292.8z"/>
</svg>
