<svg xmlns="http://www.w3.org/2000/svg" width="71" height="71" viewBox="0 0 71 71">
  <g id="Group_1358" data-name="Group 1358" transform="translate(-1399 -916)">
    <circle id="Ellipse_37" data-name="Ellipse 37" cx="35.5" cy="35.5" r="35.5" transform="translate(1399 916)" fill="#f7d44b"/>
    <path id="Icon_awesome-book-reader" data-name="Icon awesome-book-reader" d="M26.925,7.343a7.343,7.343,0,1,0-7.343,7.343A7.343,7.343,0,0,0,26.925,7.343Zm-9.057,11.1C13.329,15.664,5.979,14.9,2.279,14.69A2.116,2.116,0,0,0,0,16.762V33.8a2.1,2.1,0,0,0,2.026,2.069c3.34.175,10.1.817,14.766,3.169a1.065,1.065,0,0,0,1.567-.908V19.319a1.018,1.018,0,0,0-.491-.877ZM36.884,14.69c-3.7.21-11.05.974-15.587,3.752a1.037,1.037,0,0,0-.49.89v18.8a1.068,1.068,0,0,0,1.571.91c4.669-2.35,11.422-2.992,14.761-3.167a2.105,2.105,0,0,0,2.026-2.07V16.762A2.117,2.117,0,0,0,36.884,14.69Z" transform="translate(1415.418 930.418)" fill="#2e2925"/>
  </g>
</svg>
