<svg xmlns="http://www.w3.org/2000/svg" width="71" height="71" viewBox="0 0 71 71">
  <g id="Group_1357" data-name="Group 1357" transform="translate(-925 -916)">
    <circle id="Ellipse_38" data-name="Ellipse 38" cx="35.5" cy="35.5" r="35.5" transform="translate(925 916)" fill="#f7d44b"/>
    <path id="Icon_metro-flow-tree" data-name="Icon metro-flow-tree" d="M42.488,34.343V29.135a7.843,7.843,0,0,0-7.843-7.843H30.163A3.363,3.363,0,0,1,26.8,17.93V12.722a5.378,5.378,0,1,0-4.482,0V17.93a3.363,3.363,0,0,1-3.361,3.361H14.477a7.843,7.843,0,0,0-7.843,7.843v5.208a5.378,5.378,0,1,0,4.482,0V29.135a3.363,3.363,0,0,1,3.361-3.361h4.482a7.762,7.762,0,0,0,3.361-.784v9.354a5.378,5.378,0,1,0,4.482,0V24.989a7.762,7.762,0,0,0,3.361.784h4.482a3.363,3.363,0,0,1,3.361,3.361v5.208a5.378,5.378,0,1,0,4.482,0ZM24.561,4.742a3.1,3.1,0,1,1-3.1,3.1,3.1,3.1,0,0,1,3.1-3.1ZM8.874,42.323a3.1,3.1,0,1,1,3.1-3.1,3.1,3.1,0,0,1-3.1,3.1Zm15.687,0a3.1,3.1,0,1,1,3.1-3.1,3.1,3.1,0,0,1-3.1,3.1Zm15.687,0a3.1,3.1,0,1,1,3.1-3.1,3.1,3.1,0,0,1-3.1,3.1Z" transform="translate(936.439 927.468)" fill="#2e2925"/>
  </g>
</svg>
