<svg id="Component_39_1" data-name="Component 39 – 1" xmlns="http://www.w3.org/2000/svg" width="34.909" height="34.909" viewBox="0 0 34.909 34.909">
  <path id="Path_208" data-name="Path 208" d="M34.909,31.836,27.664,24.59a15.032,15.032,0,0,0,3.074-9.221A15.274,15.274,0,0,0,15.369,0,15.274,15.274,0,0,0,0,15.369,15.274,15.274,0,0,0,15.369,30.738a15.032,15.032,0,0,0,9.221-3.074l7.245,7.245ZM4.391,15.369A10.871,10.871,0,0,1,15.369,4.391,10.871,10.871,0,0,1,26.347,15.369,10.871,10.871,0,0,1,15.369,26.347,10.871,10.871,0,0,1,4.391,15.369Z" fill="#2e2925"/>
</svg>
